<svg xmlns="http://www.w3.org/2000/svg" fill="none" viewBox="0 0 1000 1000" height="1000" width="1000">
<rect fill="#F5F5F5" rx="20" height="1000" width="1000"></rect>
<path stroke="#E0E0E0" fill="white" d="M175.583 169H824.418C839.928 169 852.501 181.557 852.501 197.046V802.217C852.501 817.705 839.928 830.263 824.418 830.263H175.583C160.073 830.263 147.5 817.705 147.5 802.217V197.046C147.5 181.557 160.073 169 175.583 169Z"></path>
<path fill="#FAFAFA" d="M818.974 182.059H181.3C169.856 182.059 160.578 191.324 160.578 202.754V416.848C160.578 428.278 169.856 437.543 181.3 437.543H818.974C830.419 437.543 839.697 428.278 839.697 416.848V202.754C839.697 191.324 830.419 182.059 818.974 182.059Z"></path>
<path stroke="#EBEBEB" d="M818.974 182.059H181.3C169.856 182.059 160.578 191.324 160.578 202.754V416.848C160.578 428.278 169.856 437.543 181.3 437.543H818.974C830.419 437.543 839.697 428.278 839.697 416.848V202.754C839.697 191.324 830.419 182.059 818.974 182.059Z"></path>
<path fill="#737373" d="M210.443 273.773C208.37 273.773 206.746 273.278 205.572 272.289C204.398 271.284 203.766 269.906 203.674 268.155H206.304C206.38 269.282 206.761 270.142 207.447 270.736C208.133 271.329 209.132 271.626 210.443 271.626C212.943 271.626 214.193 270.758 214.193 269.023C214.193 268.429 214.079 267.972 213.85 267.653C213.621 267.318 213.263 267.059 212.775 266.876C212.303 266.694 211.609 266.526 210.694 266.374L208.865 266.054C205.877 265.536 204.383 264.06 204.383 261.624C204.383 260.695 204.612 259.873 205.069 259.157C205.542 258.427 206.212 257.856 207.081 257.445C207.966 257.034 209.002 256.828 210.191 256.828C211.883 256.828 213.286 257.254 214.399 258.107C215.512 258.944 216.159 260.193 216.342 261.852H213.758C213.621 260.863 213.278 260.139 212.729 259.683C212.181 259.211 211.304 258.975 210.1 258.975C209.017 258.975 208.209 259.203 207.676 259.66C207.158 260.101 206.898 260.688 206.898 261.418C206.898 262.088 207.089 262.606 207.47 262.971C207.866 263.321 208.583 263.588 209.62 263.77L211.335 264.044C212.463 264.242 213.408 264.501 214.17 264.821C214.932 265.141 215.542 265.62 215.999 266.26C216.472 266.899 216.708 267.752 216.708 268.817C216.708 269.776 216.464 270.629 215.976 271.375C215.489 272.121 214.772 272.707 213.827 273.133C212.897 273.56 211.769 273.773 210.443 273.773ZM224.715 273.773C223.526 273.773 222.474 273.522 221.559 273.019C220.66 272.502 219.959 271.779 219.456 270.85C218.953 269.921 218.701 268.84 218.701 267.607C218.701 266.328 218.96 265.209 219.479 264.25C219.997 263.291 220.698 262.553 221.582 262.035C222.467 261.517 223.457 261.258 224.555 261.258C225.683 261.258 226.674 261.51 227.528 262.012C228.397 262.514 229.067 263.222 229.54 264.136C230.012 265.049 230.249 266.1 230.249 267.287C230.249 267.683 230.226 268.018 230.18 268.292H221.125C221.201 269.404 221.544 270.264 222.154 270.873C222.779 271.482 223.64 271.786 224.738 271.786C226.46 271.786 227.52 271.124 227.916 269.799H230.386C229.99 271.033 229.288 272.007 228.282 272.722C227.291 273.423 226.102 273.773 224.715 273.773ZM227.802 266.465C227.695 265.445 227.383 264.654 226.864 264.09C226.346 263.527 225.569 263.245 224.532 263.245C223.511 263.245 222.733 263.519 222.2 264.067C221.666 264.615 221.323 265.415 221.171 266.465H227.802ZM232.722 257.194H235.26V273.408H232.722V257.194ZM238.438 257.194H240.976V273.408H238.438V257.194Z"></path>
<path fill="#0D0D0D" d="M213.67 314.544H213.525C212.78 315.742 211.808 316.679 210.609 317.359C209.443 318.005 208.147 318.329 206.722 318.329H205.458V313.671C210.059 313.218 212.909 311.147 214.011 307.459H219.064V341.914H213.67V314.544ZM226 335.265H232.997V341.914H226V335.265ZM250.42 342.69C248.054 342.69 245.933 342.238 244.054 341.331C242.175 340.425 240.669 339.099 239.535 337.352C238.402 335.572 237.77 333.454 237.64 330.995H243.18C243.244 333.163 243.892 334.877 245.123 336.139C246.387 337.401 248.314 338.032 250.906 338.032C253.205 338.032 255.02 337.401 256.348 336.139C257.708 334.844 258.389 332.806 258.389 330.024C258.389 324.978 255.943 322.454 251.051 322.454C249.366 322.454 247.99 322.712 246.921 323.231C245.852 323.749 244.961 324.492 244.249 325.463H239.244L240.847 307.459H261.255V312.166H245.415L244.492 320.659H244.686C246.759 318.815 249.351 317.892 252.46 317.892C256.186 317.892 258.972 319.009 260.818 321.241C262.665 323.44 263.588 326.321 263.588 329.879C263.588 333.825 262.422 336.948 260.089 339.245C257.757 341.541 254.534 342.69 250.42 342.69Z"></path>
<path fill="white" d="M761.093 288.393H652.478C632.35 288.393 616.034 304.688 616.034 324.788C616.034 344.889 632.35 361.184 652.478 361.184H761.093C781.22 361.184 797.537 344.889 797.537 324.788C797.537 304.688 781.22 288.393 761.093 288.393Z"></path>
<path fill="#FD8331" d="M650.333 344.769C661.384 344.769 670.341 335.823 670.341 324.787C670.341 313.751 661.384 304.805 650.333 304.805C639.283 304.805 630.325 313.751 630.325 324.787C630.325 335.823 639.283 344.769 650.333 344.769Z"></path>
<path fill="white" d="M657.384 322.593C657.695 320.51 656.104 319.389 653.929 318.641L654.635 315.818L652.912 315.39L652.224 318.139C651.771 318.026 651.307 317.92 650.844 317.815L651.537 315.047L649.815 314.619L649.107 317.442C648.733 317.357 648.366 317.272 648.008 317.184L648.01 317.175L645.633 316.583L645.176 318.419C645.176 318.419 646.453 318.711 646.426 318.73C647.124 318.902 647.251 319.363 647.229 319.729L646.426 322.946C646.473 322.957 646.536 322.976 646.605 323.003C646.548 322.989 646.486 322.973 646.422 322.957L645.296 327.463C645.21 327.676 644.994 327.993 644.507 327.872C644.524 327.897 643.254 327.56 643.254 327.56L642.399 329.527L644.641 330.085C645.057 330.189 645.467 330.299 645.869 330.402L645.156 333.258L646.876 333.686L647.584 330.86C648.054 330.987 648.51 331.106 648.956 331.216L648.253 334.027L649.976 334.457L650.689 331.605C653.626 332.161 655.836 331.936 656.766 329.286C657.515 327.152 656.729 325.92 655.183 325.118C656.309 324.859 657.156 324.121 657.384 322.593ZM653.446 328.101C652.913 330.235 649.312 329.082 648.143 328.792L649.089 325.008C650.258 325.3 654.002 325.875 653.446 328.101ZM653.979 322.563C653.493 324.505 650.495 323.518 649.522 323.277L650.381 319.844C651.353 320.087 654.485 320.538 653.979 322.563Z"></path>
<path fill="#1A1A1A" d="M679.455 306.432H686.132C687.794 306.432 689.075 306.813 689.974 307.574C690.874 308.334 691.323 309.339 691.323 310.588C691.323 311.365 691.126 312.072 690.728 312.712C690.348 313.351 689.814 313.824 689.128 314.128V314.196C689.997 314.44 690.683 314.881 691.186 315.521C691.704 316.16 691.963 316.975 691.963 317.964C691.963 319.41 691.483 320.552 690.522 321.39C689.562 322.228 688.144 322.646 686.269 322.646H679.455V306.432ZM686.338 320.453C687.39 320.453 688.167 320.255 688.67 319.86C689.173 319.449 689.425 318.794 689.425 317.896C689.425 316.967 689.173 316.304 688.67 315.909C688.167 315.498 687.39 315.292 686.338 315.292H681.993V320.453H686.338ZM685.949 313.283C686.925 313.283 687.641 313.107 688.099 312.758C688.556 312.408 688.785 311.814 688.785 310.976C688.785 310.154 688.549 309.56 688.076 309.195C687.604 308.814 686.895 308.624 685.949 308.624H681.993V313.283H685.949ZM697.837 308.624H692.623V306.432H705.566V308.624H700.375V322.646H697.837V308.624ZM714.555 323.011C712.893 323.011 711.43 322.653 710.165 321.938C708.914 321.223 707.947 320.232 707.261 318.969C706.575 317.706 706.232 316.282 706.232 314.699C706.232 313.039 706.582 311.554 707.284 310.246C708 308.937 708.991 307.916 710.256 307.185C711.521 306.439 712.947 306.066 714.532 306.066C715.783 306.066 716.917 306.295 717.939 306.751C718.961 307.193 719.807 307.832 720.477 308.67C721.148 309.492 721.605 310.451 721.849 311.547H719.197C718.938 310.497 718.412 309.682 717.619 309.104C716.842 308.526 715.82 308.236 714.555 308.236C712.696 308.236 711.269 308.8 710.279 309.926C709.289 311.052 708.793 312.591 708.793 314.539C708.793 316.487 709.289 318.026 710.279 319.152C711.269 320.278 712.68 320.842 714.509 320.842C715.806 320.842 716.849 320.552 717.642 319.974C718.435 319.396 718.975 318.581 719.266 317.53H721.941C721.529 319.19 720.66 320.522 719.334 321.527C718.024 322.516 716.43 323.011 714.555 323.011Z"></path>
<path fill="#808080" d="M679.569 330.467H684.577C685.823 330.467 686.783 330.752 687.458 331.323C688.132 331.894 688.47 332.648 688.47 333.584C688.47 334.166 688.321 334.697 688.024 335.177C687.738 335.656 687.338 336.01 686.823 336.239V336.29C687.475 336.473 687.989 336.804 688.367 337.284C688.755 337.763 688.95 338.374 688.95 339.116C688.95 340.201 688.59 341.057 687.869 341.685C687.149 342.313 686.086 342.627 684.679 342.627H679.569V330.467ZM684.731 340.983C685.52 340.983 686.103 340.835 686.48 340.538C686.858 340.229 687.046 339.738 687.046 339.065C687.046 338.368 686.858 337.872 686.48 337.575C686.103 337.266 685.52 337.112 684.731 337.112H681.472V340.983H684.731ZM684.439 335.605C685.171 335.605 685.709 335.474 686.051 335.211C686.394 334.948 686.566 334.503 686.566 333.875C686.566 333.259 686.389 332.813 686.034 332.539C685.68 332.254 685.148 332.111 684.439 332.111H681.472V335.605H684.439ZM690.885 333.79H692.72V342.627H690.885V333.79ZM690.765 330.467H692.84V332.402H690.765V330.467ZM698.125 342.627C697.439 342.627 696.913 342.525 696.547 342.319C696.193 342.102 695.953 341.788 695.827 341.377C695.701 340.966 695.638 340.412 695.638 339.716V335.348H694.146V333.79H694.352C694.752 333.79 695.055 333.761 695.261 333.704C695.467 333.647 695.621 333.515 695.724 333.31C695.838 333.093 695.896 332.75 695.896 332.282V331.7H697.49V333.79H699.634V335.348H697.49V339.476C697.49 339.91 697.525 340.235 697.593 340.452C697.673 340.658 697.805 340.8 697.988 340.88C698.182 340.96 698.457 341 698.811 341C699.108 341 699.354 340.977 699.548 340.932V342.627H698.125ZM705.046 342.901C704.166 342.901 703.383 342.713 702.697 342.336C702.011 341.948 701.473 341.406 701.085 340.709C700.707 340.013 700.519 339.202 700.519 338.277C700.519 337.318 700.707 336.479 701.085 335.759C701.473 335.04 702.005 334.486 702.68 334.098C703.366 333.71 704.143 333.515 705.012 333.515C706.144 333.515 707.081 333.824 707.825 334.44C708.568 335.046 709.019 335.868 709.179 336.907H707.379C707.264 336.302 707.019 335.833 706.641 335.502C706.275 335.171 705.738 335.006 705.029 335.006C704.16 335.006 703.491 335.297 703.023 335.879C702.554 336.45 702.32 337.226 702.32 338.208C702.32 339.202 702.548 339.984 703.005 340.555C703.463 341.126 704.149 341.411 705.063 341.411C706.413 341.411 707.202 340.778 707.43 339.51H709.248C709.077 340.549 708.608 341.377 707.842 341.994C707.087 342.599 706.155 342.901 705.046 342.901ZM714.893 342.901C714.001 342.901 713.213 342.707 712.527 342.319C711.852 341.931 711.326 341.383 710.949 340.675C710.583 339.967 710.4 339.145 710.4 338.208C710.4 337.284 710.594 336.467 710.983 335.759C711.372 335.04 711.903 334.486 712.578 334.098C713.264 333.71 714.036 333.515 714.893 333.515C715.739 333.515 716.5 333.715 717.174 334.115C717.86 334.503 718.398 335.057 718.786 335.776C719.175 336.484 719.369 337.295 719.369 338.208C719.369 339.145 719.181 339.973 718.803 340.692C718.438 341.4 717.912 341.948 717.226 342.336C716.551 342.713 715.774 342.901 714.893 342.901ZM714.893 341.411C715.796 341.411 716.465 341.132 716.9 340.572C717.346 340.001 717.569 339.213 717.569 338.208C717.569 337.204 717.346 336.421 716.9 335.862C716.454 335.291 715.785 335.006 714.893 335.006C713.99 335.006 713.315 335.291 712.87 335.862C712.424 336.421 712.201 337.204 712.201 338.208C712.201 339.225 712.424 340.013 712.87 340.572C713.315 341.132 713.99 341.411 714.893 341.411ZM721.149 333.79H722.984V342.627H721.149V333.79ZM721.029 330.467H723.104V332.402H721.029V330.467ZM725.265 333.79H727.117V334.954H727.185C727.723 333.995 728.586 333.515 729.775 333.515C730.724 333.515 731.507 333.807 732.124 334.389C732.753 334.96 733.068 335.948 733.068 337.352V342.627H731.216V337.729C731.216 336.701 731.038 335.993 730.684 335.605C730.341 335.205 729.838 335.006 729.175 335.006C727.803 335.006 727.117 335.913 727.117 337.729V342.627H725.265V333.79Z"></path>
<path stroke-linejoin="round" stroke-linecap="round" stroke-width="2" stroke="#808080" d="M758.949 321.934L766.095 329.07"></path>
<path stroke-linejoin="round" stroke-linecap="round" stroke-width="2" stroke="#808080" d="M766.096 329.07L773.241 321.934"></path>
<path fill="#FAFAFA" d="M818.974 446.107H181.3C169.856 446.107 160.578 455.373 160.578 466.803V680.897C160.578 692.326 169.856 701.592 181.3 701.592H818.974C830.419 701.592 839.697 692.326 839.697 680.897V466.803C839.697 455.373 830.419 446.107 818.974 446.107Z"></path>
<path stroke="#EBEBEB" d="M818.974 446.107H181.3C169.856 446.107 160.578 455.373 160.578 466.803V680.897C160.578 692.326 169.856 701.592 181.3 701.592H818.974C830.419 701.592 839.697 692.326 839.697 680.897V466.803C839.697 455.373 830.419 446.107 818.974 446.107Z"></path>
<path fill="#737373" d="M204.702 521.953H211.379C213.041 521.953 214.321 522.334 215.221 523.095C216.12 523.856 216.57 524.86 216.57 526.109C216.57 526.886 216.372 527.594 215.975 528.233C215.594 528.873 215.061 529.345 214.375 529.649V529.718C215.244 529.962 215.93 530.403 216.433 531.042C216.951 531.682 217.21 532.496 217.21 533.486C217.21 534.931 216.73 536.073 215.77 536.911C214.809 537.749 213.391 538.167 211.516 538.167H204.702V521.953ZM211.585 535.975C212.637 535.975 213.414 535.776 213.917 535.381C214.42 534.97 214.672 534.315 214.672 533.417C214.672 532.488 214.42 531.826 213.917 531.43C213.414 531.019 212.637 530.814 211.585 530.814H207.24V535.975H211.585ZM211.196 528.804C212.172 528.804 212.888 528.629 213.346 528.279C213.803 527.929 214.032 527.335 214.032 526.498C214.032 525.675 213.795 525.082 213.323 524.716C212.85 524.335 212.141 524.145 211.196 524.145H207.24V528.804H211.196ZM223.837 538.533C220.956 538.533 219.516 536.873 219.516 533.554V526.383H221.985V533.006C221.985 534.346 222.191 535.274 222.603 535.792C223.029 536.295 223.693 536.546 224.592 536.546C225.537 536.546 226.216 536.265 226.627 535.701C227.054 535.123 227.267 534.201 227.267 532.938V526.383H229.737V538.167H227.267V536.66H227.176C226.459 537.909 225.347 538.533 223.837 538.533ZM232.102 540.77C232.528 540.832 232.978 540.862 233.451 540.862C233.862 540.862 234.198 540.809 234.457 540.702C234.731 540.611 234.983 540.421 235.211 540.131C235.455 539.841 235.699 539.407 235.943 538.829L236.08 538.51L231.278 526.383H233.954L236.881 534.262L237.384 535.655H237.521C237.628 535.335 237.803 534.872 238.047 534.262L241.271 526.383H243.741L238.321 539.195C237.864 540.245 237.46 541.006 237.109 541.478C236.774 541.965 236.362 542.301 235.875 542.483C235.387 542.682 234.701 542.78 233.817 542.78H232.102V540.77Z"></path>
<path fill="#0D0D0D" d="M219.986 606.742C215.386 606.742 211.92 605.125 209.587 601.889C207.255 598.654 206.089 594.27 206.089 588.738C206.089 583.173 207.255 578.79 209.587 575.587C211.92 572.351 215.386 570.734 219.986 570.734C224.586 570.734 228.052 572.351 230.384 575.587C232.749 578.823 233.932 583.206 233.932 588.738C233.932 594.303 232.765 598.702 230.433 601.938C228.101 605.141 224.618 606.742 219.986 606.742ZM219.986 602.132C222.966 602.132 225.137 601.031 226.497 598.832C227.89 596.6 228.587 593.236 228.587 588.738C228.587 584.241 227.89 580.892 226.497 578.693C225.137 576.461 222.966 575.344 219.986 575.344C217.006 575.344 214.835 576.461 213.475 578.693C212.114 580.892 211.434 584.241 211.434 588.738C211.434 593.236 212.114 596.6 213.475 598.832C214.835 601.031 217.006 602.132 219.986 602.132Z"></path>
<path fill="black" d="M761.093 552.441H585.308C565.181 552.441 548.864 568.736 548.864 588.837C548.864 608.938 565.181 625.233 585.308 625.233H761.093C781.221 625.233 797.537 608.938 797.537 588.837C797.537 568.736 781.221 552.441 761.093 552.441Z"></path>
<path fill="#FAFAFA" d="M578.454 597.052C576.381 597.052 574.757 596.557 573.584 595.568C572.411 594.563 571.778 593.186 571.686 591.434H574.316C574.391 592.561 574.773 593.421 575.459 594.015C576.145 594.609 577.144 594.906 578.454 594.906C580.954 594.906 582.205 594.038 582.205 592.302C582.205 591.708 582.09 591.252 581.862 590.932C581.633 590.597 581.274 590.338 580.787 590.156C580.314 589.973 579.621 589.806 578.706 589.653L576.877 589.333C573.888 588.815 572.395 587.339 572.395 584.903C572.395 583.974 572.624 583.152 573.081 582.437C573.554 581.706 574.224 581.135 575.093 580.724C575.978 580.313 577.014 580.107 578.203 580.107C579.895 580.107 581.297 580.534 582.41 581.386C583.524 582.224 584.171 583.472 584.354 585.131H581.77C581.633 584.142 581.29 583.419 580.741 582.962C580.192 582.49 579.316 582.254 578.112 582.254C577.03 582.254 576.221 582.482 575.688 582.939C575.169 583.38 574.91 583.967 574.91 584.698C574.91 585.367 575.1 585.885 575.482 586.25C575.878 586.6 576.595 586.867 577.631 587.05L579.346 587.324C580.474 587.522 581.42 587.781 582.182 588.1C582.943 588.42 583.554 588.9 584.011 589.539C584.484 590.178 584.72 591.03 584.72 592.097C584.72 593.056 584.476 593.908 583.988 594.654C583.501 595.401 582.783 595.986 581.839 596.413C580.908 596.84 579.781 597.052 578.454 597.052ZM592.726 597.052C591.537 597.052 590.485 596.801 589.57 596.299C588.672 595.78 587.97 595.058 587.467 594.129C586.964 593.2 586.712 592.119 586.712 590.886C586.712 589.607 586.972 588.488 587.49 587.529C588.008 586.57 588.71 585.832 589.593 585.314C590.478 584.796 591.468 584.538 592.566 584.538C593.695 584.538 594.685 584.789 595.539 585.291C596.408 585.794 597.079 586.502 597.551 587.415C598.024 588.329 598.26 589.379 598.26 590.567C598.26 590.962 598.237 591.297 598.191 591.571H589.136C589.213 592.683 589.556 593.542 590.165 594.152C590.791 594.761 591.651 595.065 592.749 595.065C594.472 595.065 595.531 594.403 595.927 593.079H598.397C598.001 594.312 597.299 595.287 596.293 596.002C595.303 596.702 594.114 597.052 592.726 597.052ZM595.813 589.744C595.707 588.724 595.394 587.933 594.875 587.369C594.358 586.806 593.581 586.525 592.543 586.525C591.523 586.525 590.745 586.799 590.211 587.347C589.678 587.895 589.335 588.694 589.182 589.744H595.813ZM600.734 580.473H603.272V596.687H600.734V580.473ZM611.662 597.052C610.473 597.052 609.421 596.801 608.507 596.299C607.608 595.78 606.906 595.058 606.403 594.129C605.9 593.2 605.648 592.119 605.648 590.886C605.648 589.607 605.908 588.488 606.426 587.529C606.945 586.57 607.646 585.832 608.53 585.314C609.414 584.796 610.405 584.538 611.502 584.538C612.631 584.538 613.622 584.789 614.475 585.291C615.344 585.794 616.015 586.502 616.487 587.415C616.96 588.329 617.196 589.379 617.196 590.567C617.196 590.962 617.173 591.297 617.127 591.571H608.072C608.149 592.683 608.492 593.542 609.101 594.152C609.727 594.761 610.588 595.065 611.685 595.065C613.409 595.065 614.468 594.403 614.864 593.079H617.333C616.937 594.312 616.236 595.287 615.229 596.002C614.239 596.702 613.05 597.052 611.662 597.052ZM614.749 589.744C614.643 588.724 614.33 587.933 613.812 587.369C613.294 586.806 612.517 586.525 611.479 586.525C610.459 586.525 609.681 586.799 609.147 587.347C608.614 587.895 608.271 588.694 608.118 589.744H614.749ZM625.129 597.052C623.954 597.052 622.911 596.801 621.996 596.299C621.082 595.78 620.364 595.058 619.847 594.129C619.344 593.2 619.092 592.119 619.092 590.886C619.092 589.607 619.344 588.488 619.847 587.529C620.364 586.57 621.073 585.832 621.974 585.314C622.888 584.796 623.924 584.538 625.083 584.538C626.593 584.538 627.842 584.949 628.834 585.771C629.824 586.577 630.426 587.673 630.64 589.059H628.239C628.086 588.253 627.759 587.628 627.256 587.187C626.767 586.746 626.051 586.525 625.106 586.525C623.947 586.525 623.055 586.913 622.431 587.689C621.805 588.45 621.493 589.486 621.493 590.795C621.493 592.119 621.798 593.163 622.408 593.924C623.017 594.684 623.932 595.065 625.152 595.065C626.95 595.065 628.002 594.22 628.308 592.531H630.731C630.503 593.916 629.877 595.02 628.856 595.842C627.85 596.648 626.607 597.052 625.129 597.052ZM636.98 596.687C636.065 596.687 635.365 596.55 634.876 596.276C634.404 595.986 634.084 595.568 633.916 595.02C633.748 594.472 633.664 593.734 633.664 592.805V586.981H631.675V584.903H631.949C632.484 584.903 632.887 584.865 633.161 584.789C633.435 584.713 633.641 584.538 633.778 584.264C633.931 583.974 634.007 583.517 634.007 582.893V582.117H636.134V584.903H638.992V586.981H636.134V592.485C636.134 593.063 636.179 593.497 636.271 593.787C636.378 594.061 636.554 594.25 636.797 594.357C637.057 594.465 637.423 594.517 637.894 594.517C638.292 594.517 638.619 594.487 638.878 594.426V596.687H636.98ZM652.562 597.052C651.616 597.052 650.801 596.892 650.115 596.573C649.429 596.237 648.903 595.789 648.537 595.225C648.186 594.647 648.011 593.999 648.011 593.284C648.011 591.046 649.436 589.797 652.287 589.539L655.351 589.265C655.777 589.219 656.067 589.128 656.22 588.991C656.372 588.838 656.449 588.603 656.449 588.283C656.449 587.751 656.235 587.324 655.809 587.004C655.381 586.684 654.711 586.525 653.797 586.525C652.104 586.525 651.181 587.164 651.03 588.443H648.537C648.643 587.24 649.185 586.289 650.161 585.588C651.135 584.887 652.416 584.538 654.002 584.538C655.526 584.538 656.738 584.896 657.638 585.611C658.553 586.326 659.01 587.445 659.01 588.968V594.015C659.01 595.294 659.07 596.184 659.193 596.687H656.632V595.088H656.541C655.626 596.397 654.3 597.052 652.562 597.052ZM652.973 595.134C654.025 595.134 654.886 594.86 655.557 594.312C656.243 593.764 656.586 593.026 656.586 592.097V590.795C656.433 590.932 656.06 591.03 655.466 591.092L652.47 591.389C651.677 591.48 651.128 591.678 650.824 591.982C650.518 592.286 650.367 592.706 650.367 593.239C650.367 593.832 650.58 594.296 651.007 594.632C651.448 594.967 652.104 595.134 652.973 595.134ZM673.177 596.687C672.263 596.687 671.562 596.55 671.074 596.276C670.602 595.986 670.282 595.568 670.113 595.02C669.946 594.472 669.862 593.734 669.862 592.805V586.981H667.872V584.903H668.147C668.681 584.903 669.084 584.865 669.359 584.789C669.633 584.713 669.839 584.538 669.976 584.264C670.129 583.974 670.205 583.517 670.205 582.893V582.117H672.331V584.903H675.19V586.981H672.331V592.485C672.331 593.063 672.377 593.497 672.468 593.787C672.576 594.061 672.751 594.25 672.994 594.357C673.254 594.465 673.62 594.517 674.092 594.517C674.489 594.517 674.817 594.487 675.075 594.426V596.687H673.177ZM682.361 597.052C681.172 597.052 680.12 596.794 679.205 596.276C678.305 595.758 677.605 595.027 677.102 594.083C676.613 593.14 676.37 592.044 676.37 590.795C676.37 589.562 676.629 588.473 677.147 587.529C677.665 586.57 678.374 585.832 679.274 585.314C680.189 584.796 681.218 584.538 682.361 584.538C683.489 584.538 684.502 584.805 685.402 585.337C686.317 585.855 687.033 586.593 687.552 587.552C688.069 588.496 688.329 589.577 688.329 590.795C688.329 592.044 688.078 593.147 687.575 594.106C687.086 595.05 686.386 595.78 685.471 596.299C684.571 596.801 683.534 597.052 682.361 597.052ZM682.361 595.065C683.564 595.065 684.456 594.693 685.036 593.946C685.631 593.186 685.928 592.135 685.928 590.795C685.928 589.455 685.631 588.413 685.036 587.666C684.442 586.906 683.55 586.525 682.361 586.525C681.156 586.525 680.257 586.906 679.663 587.666C679.068 588.413 678.771 589.455 678.771 590.795C678.771 592.149 679.068 593.2 679.663 593.946C680.257 594.693 681.156 595.065 682.361 595.065ZM690.607 580.473H693.145V589.699C693.603 589.135 694.014 588.664 694.38 588.283L697.65 584.903H700.577L696.027 589.63L701.126 596.687H698.176L694.403 591.183L693.145 592.485V596.687H690.607V580.473ZM707.461 597.052C706.272 597.052 705.22 596.801 704.306 596.299C703.405 595.78 702.705 595.058 702.202 594.129C701.699 593.2 701.447 592.119 701.447 590.886C701.447 589.607 701.706 588.488 702.225 587.529C702.742 586.57 703.444 585.832 704.329 585.314C705.212 584.796 706.204 584.538 707.301 584.538C708.429 584.538 709.419 584.789 710.274 585.291C711.143 585.794 711.813 586.502 712.286 587.415C712.758 588.329 712.995 589.379 712.995 590.567C712.995 590.962 712.972 591.297 712.926 591.571H703.871C703.947 592.683 704.29 593.542 704.9 594.152C705.525 594.761 706.386 595.065 707.484 595.065C709.206 595.065 710.265 594.403 710.663 593.079H713.132C712.735 594.312 712.035 595.287 711.028 596.002C710.037 596.702 708.848 597.052 707.461 597.052ZM710.548 589.744C710.441 588.724 710.128 587.933 709.611 587.369C709.092 586.806 708.314 586.525 707.278 586.525C706.256 586.525 705.479 586.799 704.946 587.347C704.411 587.895 704.068 588.694 703.917 589.744H710.548ZM715.349 584.903H717.818V586.456H717.91C718.627 585.177 719.778 584.538 721.363 584.538C722.629 584.538 723.672 584.926 724.495 585.702C725.334 586.463 725.753 587.781 725.753 589.653V596.687H723.283V590.156C723.283 588.785 723.048 587.842 722.575 587.324C722.117 586.791 721.447 586.525 720.562 586.525C718.733 586.525 717.818 587.735 717.818 590.156V596.687H715.349V584.903Z"></path>
<path stroke-linejoin="round" stroke-linecap="round" stroke-width="2" stroke="#808080" d="M751.805 585.982L758.95 593.119"></path>
<path stroke-linejoin="round" stroke-linecap="round" stroke-width="2" stroke="#808080" d="M758.949 593.119L766.095 585.982"></path>
<path fill="#31FD9D" d="M818.973 709.441H181.299C169.46 709.441 159.862 719.027 159.862 730.851V796.778C159.862 808.602 169.46 818.187 181.299 818.187H818.973C830.812 818.187 840.41 808.602 840.41 796.778V730.851C840.41 719.027 830.812 709.441 818.973 709.441Z"></path>
<path fill="black" d="M472.965 774.263C470.373 774.263 468.344 773.645 466.877 772.407C465.41 771.151 464.619 769.43 464.505 767.241H467.792C467.886 768.649 468.364 769.724 469.221 770.466C470.079 771.209 471.326 771.58 472.965 771.58C476.09 771.58 477.653 770.495 477.653 768.325C477.653 767.583 477.51 767.012 477.224 766.613C476.939 766.195 476.49 765.871 475.881 765.642C475.289 765.414 474.423 765.205 473.28 765.014L470.993 764.615C467.257 763.968 465.391 762.122 465.391 759.077C465.391 757.916 465.677 756.889 466.248 755.994C466.839 755.08 467.678 754.367 468.764 753.853C469.868 753.339 471.165 753.082 472.651 753.082C474.766 753.082 476.518 753.616 477.91 754.681C479.301 755.728 480.111 757.288 480.34 759.362H477.11C476.939 758.126 476.51 757.221 475.824 756.65C475.138 756.061 474.042 755.765 472.537 755.765C471.183 755.765 470.173 756.051 469.507 756.622C468.858 757.174 468.535 757.906 468.535 758.82C468.535 759.658 468.772 760.304 469.25 760.761C469.744 761.199 470.64 761.532 471.936 761.76L474.08 762.102C475.489 762.351 476.671 762.673 477.624 763.073C478.576 763.473 479.339 764.072 479.911 764.871C480.501 765.671 480.797 766.737 480.797 768.069C480.797 769.267 480.491 770.334 479.883 771.266C479.272 772.199 478.376 772.931 477.196 773.464C476.032 773.998 474.623 774.263 472.965 774.263ZM482.432 759.077H485.576L488.006 767.897C488.14 768.393 488.255 769.002 488.349 769.724H488.463C488.578 768.945 488.702 768.325 488.835 767.869L491.293 759.077H494.351L496.695 767.897C496.809 768.297 496.934 768.906 497.067 769.724H497.181C497.295 768.945 497.42 768.335 497.553 767.897L500.068 759.077H502.812L498.496 773.806H495.495L492.979 764.643C492.846 764.225 492.751 763.721 492.693 763.13H492.579C492.485 763.74 492.379 764.235 492.265 764.615L489.578 773.806H486.634L482.432 759.077ZM509.437 774.263C508.257 774.263 507.237 774.063 506.379 773.664C505.522 773.245 504.864 772.684 504.407 771.979C503.97 771.257 503.749 770.448 503.749 769.553C503.749 766.755 505.532 765.195 509.094 764.871L512.925 764.529C513.459 764.472 513.821 764.358 514.011 764.186C514.202 763.997 514.297 763.701 514.297 763.301C514.297 762.636 514.031 762.102 513.496 761.703C512.963 761.303 512.124 761.103 510.981 761.103C508.866 761.103 507.714 761.903 507.522 763.501H504.407C504.541 761.998 505.217 760.809 506.436 759.933C507.657 759.058 509.257 758.62 511.238 758.62C513.145 758.62 514.66 759.068 515.783 759.962C516.926 760.856 517.498 762.255 517.498 764.158V770.466C517.498 772.065 517.575 773.178 517.727 773.806H514.525V771.808H514.411C513.268 773.445 511.61 774.263 509.437 774.263ZM509.952 771.865C511.267 771.865 512.344 771.523 513.182 770.838C514.039 770.152 514.468 769.23 514.468 768.069V766.441C514.278 766.613 513.811 766.737 513.068 766.813L509.323 767.184C508.333 767.298 507.647 767.546 507.265 767.926C506.885 768.307 506.693 768.831 506.693 769.496C506.693 770.238 506.961 770.819 507.494 771.237C508.047 771.657 508.866 771.865 509.952 771.865ZM520.959 759.077H524.046V761.132H524.161C524.694 760.333 525.37 759.715 526.19 759.276C527.009 758.84 527.952 758.62 529.02 758.62C530.335 758.62 531.506 758.944 532.535 759.59C533.564 760.218 534.373 761.123 534.965 762.302C535.555 763.483 535.851 764.863 535.851 766.441C535.851 767.983 535.537 769.353 534.908 770.552C534.279 771.732 533.44 772.646 532.392 773.292C531.343 773.94 530.2 774.263 528.963 774.263C526.847 774.263 525.247 773.484 524.161 771.922H524.046V779.116H520.959V759.077ZM528.448 761.046C525.361 761.046 523.818 762.845 523.818 766.441C523.818 770.058 525.361 771.865 528.448 771.865C529.839 771.865 530.925 771.38 531.706 770.409C532.487 769.42 532.878 768.097 532.878 766.441C532.878 764.749 532.497 763.426 531.735 762.474C530.992 761.523 529.896 761.046 528.448 761.046Z"></path>
<path stroke="#EBEBEB" fill="white" d="M474.996 438.259C474.996 452.053 486.194 463.236 500.006 463.236C513.819 463.236 525.017 452.053 525.017 438.259C525.017 424.464 513.819 413.281 500.006 413.281C486.194 413.281 474.996 424.464 474.996 438.259Z"></path>
<path fill="#808080" d="M499.397 440.988L501.222 442.998L492.695 451.609L484.168 442.998L485.993 440.988L491.248 446.538V429.684H494.142V446.538L499.397 440.988Z"></path>
<path fill="#808080" d="M501.826 436.743L500.001 434.715L508.528 426.028L517.054 434.715L515.23 436.743L509.975 431.144L509.975 449.172L507.081 449.172L507.081 431.144L501.826 436.743Z"></path>
<path fill="white" d="M748.543 636.094C747.567 635.697 746.024 634.641 743.753 633.526C742.475 632.93 739.658 632.023 738.572 631.343C737.853 630.964 737.326 630.301 737.117 629.516C736.685 628.043 737.416 626.478 738.823 625.864C739.963 625.479 741.191 625.438 742.354 625.745C743.152 625.934 743.932 626.188 744.687 626.506C745.238 626.721 745.41 626.835 746.036 627.087C746.662 627.339 747.167 627.66 746.595 627.084C745.877 626.165 744.667 624.623 743.461 623.32C742.543 622.33 742.379 622.184 741.642 621.463C740.905 620.741 740.35 620.102 739.524 619.272C738.73 618.446 737.98 617.579 737.278 616.675C736.3 615.564 735.73 614.153 735.661 612.674C735.981 611.613 736.906 610.848 738.008 610.733C739.265 610.875 740.446 611.404 741.389 612.248C742.653 613.226 743.78 614.369 744.739 615.648C746.214 617.463 748.52 620.025 748.886 620.614C748.459 619.874 747.418 618.395 747.154 617.614C746.871 616.804 747.029 615.905 747.57 615.24C748.06 614.713 748.667 614.308 749.341 614.057C750.036 613.829 750.792 613.868 751.459 614.168C752.596 615.067 753.568 616.158 754.332 617.39C753.751 616.26 753.311 615.063 753.022 613.826C753.084 613.162 753.376 612.541 753.847 612.069C754.439 611.566 755.117 611.175 755.848 610.914C756.495 610.782 757.166 610.85 757.774 611.109C758.81 611.925 759.713 612.897 760.451 613.991C760.612 614.271 760.14 613.13 760.176 612.176C760.013 611.365 760.295 610.528 760.915 609.981C761.536 609.435 762.401 609.26 763.185 609.524C763.969 609.788 764.552 610.451 764.716 611.261C765.466 612.562 765.432 612.502 765.94 613.382C766.448 614.262 766.898 615.042 767.326 615.782C767.929 616.995 768.44 618.25 768.855 619.54C769.093 620.755 769.164 621.997 769.066 623.231C768.719 624.872 768.621 626.556 768.776 628.226C769.004 628.969 769.325 629.679 769.731 630.342C770.088 630.964 770.526 631.536 771.034 632.043C770.266 632.602 769.441 633.078 768.573 633.464C767.724 633.794 765.863 632.788 765.326 632.458C765.048 632.275 764.691 632.264 764.403 632.43C764.115 632.597 763.946 632.912 763.966 633.244C763.964 634.258 763.781 636.204 763.147 636.677C761.899 637.61 759.047 639.044 756.867 640.303C756.867 640.303 756.072 638.095 754.836 637.848C753.6 637.601 752.275 637.246 751.332 637.044L748.543 636.094Z"></path>
<path stroke-linejoin="round" stroke-linecap="round" stroke-width="0.75" stroke="black" d="M748.543 636.094C747.567 635.697 746.024 634.641 743.753 633.526C742.475 632.93 739.658 632.023 738.572 631.343C737.853 630.964 737.326 630.301 737.117 629.516C736.685 628.043 737.416 626.478 738.823 625.864C739.963 625.479 741.191 625.438 742.354 625.745C743.152 625.934 743.932 626.188 744.687 626.506C745.238 626.721 745.41 626.835 746.036 627.087C746.662 627.339 747.167 627.66 746.595 627.084C745.877 626.165 744.667 624.623 743.461 623.32C742.543 622.33 742.379 622.184 741.642 621.463C740.905 620.741 740.35 620.102 739.524 619.272C738.73 618.446 737.98 617.579 737.278 616.675C736.3 615.564 735.73 614.153 735.661 612.674C735.981 611.613 736.906 610.848 738.008 610.733C739.265 610.875 740.446 611.404 741.389 612.248C742.653 613.226 743.78 614.369 744.739 615.648C746.214 617.463 748.52 620.025 748.886 620.614C748.459 619.874 747.418 618.395 747.154 617.614C746.871 616.804 747.029 615.905 747.57 615.24C748.06 614.713 748.667 614.308 749.341 614.057C750.036 613.829 750.792 613.868 751.459 614.168C752.596 615.067 753.568 616.158 754.332 617.39C753.751 616.26 753.311 615.063 753.022 613.826C753.084 613.162 753.376 612.541 753.847 612.069C754.439 611.566 755.117 611.175 755.848 610.914C756.495 610.782 757.166 610.85 757.774 611.109C758.81 611.925 759.713 612.897 760.451 613.991C760.612 614.271 760.14 613.13 760.176 612.176C760.013 611.365 760.295 610.528 760.915 609.981C761.536 609.435 762.401 609.26 763.185 609.524C763.969 609.788 764.552 610.451 764.716 611.261C765.466 612.562 765.432 612.502 765.94 613.382C766.448 614.262 766.898 615.042 767.326 615.782C767.929 616.995 768.44 618.25 768.855 619.54C769.093 620.755 769.164 621.997 769.066 623.231C768.719 624.872 768.621 626.556 768.776 628.226C769.004 628.969 769.325 629.679 769.731 630.342C770.088 630.964 770.526 631.536 771.034 632.043C770.266 632.602 769.441 633.078 768.573 633.464C767.724 633.794 765.863 632.788 765.326 632.458C765.048 632.275 764.691 632.264 764.403 632.43C764.115 632.597 763.946 632.912 763.966 633.244C763.964 634.258 763.781 636.204 763.147 636.677C761.899 637.61 759.047 639.044 756.867 640.303C756.867 640.303 756.072 638.095 754.836 637.848C753.6 637.601 752.275 637.246 751.332 637.044L748.543 636.094Z" clip-rule="evenodd" fill-rule="evenodd"></path>
<path fill="black" d="M766.136 627.394L762.149 620.49C761.911 620.076 761.382 619.935 760.967 620.174C760.553 620.414 760.411 620.942 760.649 621.356L764.636 628.26C764.874 628.673 765.403 628.815 765.818 628.575C766.232 628.336 766.374 627.807 766.136 627.394Z"></path>
<path fill="black" d="M762.173 629.677L758.145 622.792C757.904 622.381 757.374 622.244 756.962 622.485C756.549 622.727 756.409 623.256 756.649 623.667L760.678 630.552C760.918 630.962 761.448 631.1 761.861 630.858C762.274 630.617 762.413 630.088 762.173 629.677Z"></path>
</svg>
